<svg id="Layer_1" data-name="Layer 1" xmlns="http://www.w3.org/2000/svg" viewBox="0 0 43.42 43.42"><title>move</title><path d="M28.35,45.74c-.19.2-.35.14-.35-.14V29.49a.49.49,0,0,1,.49-.49H44.6c.27,0,.34.15.14.35l-4,4a.48.48,0,0,0,0,.7l.7.7a.51.51,0,0,0,.72,0l6.35-6.35a.51.51,0,0,0,0-.72l-6.35-6.35a.5.5,0,0,0-.72,0l-.7.7a.48.48,0,0,0,0,.7l4,4c.2.19.14.35-.14.35H28.49a.49.49,0,0,1-.49-.49V10.4c0-.27.15-.34.35-.14l4,4a.48.48,0,0,0,.7,0l.7-.7a.51.51,0,0,0,0-.72L27.36,6.44a.51.51,0,0,0-.72,0l-6.35,6.35a.5.5,0,0,0,0,.72l.7.7a.48.48,0,0,0,.7,0l4-4c.19-.2.35-.14.35.14V26.51a.49.49,0,0,1-.49.49H9.4c-.27,0-.34-.15-.14-.35l4-4a.48.48,0,0,0,0-.7l-.7-.7a.51.51,0,0,0-.72,0L5.44,27.64a.51.51,0,0,0,0,.72l6.35,6.35a.5.5,0,0,0,.72,0l.7-.7a.48.48,0,0,0,0-.7l-4-4c-.2-.19-.14-.35.14-.35H25.51a.49.49,0,0,1,.49.49V45.6c0,.27-.15.34-.35.14l-4-4a.48.48,0,0,0-.7,0l-.7.7a.51.51,0,0,0,0,.72l6.35,6.35a.51.51,0,0,0,.72,0l6.35-6.35a.5.5,0,0,0,0-.72l-.7-.7a.48.48,0,0,0-.7,0Z" transform="translate(-5.29 -6.29)"/></svg>